<svg viewBox="0 0 100 100" xmlns="http://www.w3.org/2000/svg">
  <!-- רקע בצבע בהיר -->
  <circle cx="50" cy="50" r="48" fill="#F5F5F5"/>
  
  <!-- גלגל הגרלה עם חלקים צבעוניים -->
  <circle cx="50" cy="50" r="40" fill="none" stroke="#E0E0E0" stroke-width="2"/>
  
  <!-- חלק 1 - בלו -->
  <path d="M 50 10 A 40 40 0 0 1 78.28 21.72 L 64.14 35.86 A 25 25 0 0 0 50 25 Z" fill="#6DB3D8"/>
  
  <!-- חלק 2 - ירוק -->
  <path d="M 78.28 21.72 A 40 40 0 0 1 90 50 L 81.25 50 A 25 25 0 0 0 64.14 35.86 Z" fill="#95C98D"/>
  
  <!-- חלק 3 - צהוב -->
  <path d="M 90 50 A 40 40 0 0 1 78.28 78.28 L 64.14 64.14 A 25 25 0 0 0 81.25 50 Z" fill="#F5D66B"/>
  
  <!-- חלק 4 - כתום -->
  <path d="M 78.28 78.28 A 40 40 0 0 1 50 90 L 50 81.25 A 25 25 0 0 0 64.14 64.14 Z" fill="#E8A978"/>
  
  <!-- חלק 5 - ורוד -->
  <path d="M 50 90 A 40 40 0 0 1 21.72 78.28 L 35.86 64.14 A 25 25 0 0 0 50 81.25 Z" fill="#E8B4D4"/>
  
  <!-- חלק 6 - סגול -->
  <path d="M 21.72 78.28 A 40 40 0 0 1 10 50 L 18.75 50 A 25 25 0 0 0 35.86 64.14 Z" fill="#D8B5E8"/>
  
  <!-- חלק 7 - תירקס -->
  <path d="M 10 50 A 40 40 0 0 1 21.72 21.72 L 35.86 35.86 A 25 25 0 0 0 18.75 50 Z" fill="#9DD9D8"/>
  
  <!-- חלק 8 - בלו בהיר -->
  <path d="M 21.72 21.72 A 40 40 0 0 1 50 10 L 50 25 A 25 25 0 0 0 35.86 35.86 Z" fill="#7ECCC8"/>
  
  <!-- עיגול מרכזי -->
  <circle cx="50" cy="50" r="12" fill="white" stroke="#999" stroke-width="1"/>
  
  <!-- נקודה במרכז -->
  <circle cx="50" cy="50" r="4" fill="#999"/>
</svg>